<?xml version="1.0" encoding="utf-8"?>
<!-- Generator: Adobe Illustrator 16.0.0, SVG Export Plug-In . SVG Version: 6.00 Build 0)  -->
<!DOCTYPE svg PUBLIC "-//W3C//DTD SVG 1.1//EN" "http://www.w3.org/Graphics/SVG/1.1/DTD/svg11.dtd">
<svg version="1.1" id="Layer_1" xmlns="http://www.w3.org/2000/svg" xmlns:xlink="http://www.w3.org/1999/xlink" x="0px" y="0px"
	 width="512px" height="512px" viewBox="0 0 512 512" enable-background="new 0 0 512 512" xml:space="preserve">
<g transform="translate(0.000000,512.000000) scale(0.100000,-0.100000)">
	<path fill="#FCFCFC" d="M2550,4565c-7.002-7.998-16.001-15-20-15c-7.002,0-337.998-187.998-370-210
		c-7.998-6.001-33.999-20-57.998-31.001c-35-16.997-41.001-22.998-31.001-35c6.001-7.998,15-13.999,20-13.999
		c3.999,0,57.998-28.999,120-65c61.001-36.001,112.998-65,113.999-65c2.002,0,32.002-17.002,66.001-37.998
		c35-21.001,80-46.001,98.999-55c18.999-10,43.999-23.003,53.999-30c76.001-48.003,128.999-79.004,183.999-107.002
		c34.004-17.002,62.002-35,62.002-38.999c0-8.999-25.996-31.001-55-47.002c-100-55-140.996-77.998-150-83.999
		c-15.996-12.002-415-240-420-240c-2.998,0-33.999-17.998-70-40s-67.002-40-70-40c-2.002,0-46.001-23.999-97.002-52.998
		c-50.996-30-122.998-70-160-90c-35.996-20-98.999-56.001-140-80L1555,3143.999v-157.998v-157.002l55-31.001
		c30-16.997,75-40.996,100-55c25-13.999,73.999-40.996,110-60.996c36.001-19.004,90-50,120-68.003
		c88.999-52.998,83.999-57.998,90,100l5,140l47.002,27.002C2125,2907.002,2158.999,2925,2290,2997.998
		c25,14.004,61.001,35,80,47.002s57.998,33.999,85,48.999c27.998,15,63.999,35,80,45c17.002,10,57.002,33.003,90,51.001
		s65,36.001,70,40c5.996,3.999,35,21.001,65,37.002c59.004,31.997,115.996,63.999,165,92.998c17.002,8.999,55,31.001,85,47.002
		c30,15.996,112.002,61.997,182.002,100.996c128.994,73.003,145.996,79.004,163.994,63.003c5-5,70-43.003,144.004-86.001
		c202.998-116.001,322.998-187.002,342.998-203.999c16.006-13.003,17.002-53.003,17.002-573.003
		c0-307.002,2.998-557.998,5.996-557.998c3.008,0,47.002,25,97.002,55.996c50,31.006,104.004,64.004,121.006,74.004
		c130,72.998,233.994,135,247.998,147.998C4349.003,2442.002,4350,2482.002,4350,3005v562.002L4299.003,3596
		c-74.004,41.997-112.002,62.998-221.006,126.997C3930,3808.999,3800,3883.999,3750,3912.001c-25,12.998-72.002,40-105,57.998
		s-72.998,42.002-90,52.002c-15.996,10-37.002,20.996-45,25c-7.998,3.999-57.998,31.997-110,62.998s-102.002,58.999-110,62.998
		c-39.004,20-227.998,129.004-290,168.003c-7.998,5-47.002,26.997-87.002,48.999C2680,4518.999,2605,4562.998,2602.001,4571
		C2595.996,4585,2562.998,4581,2550,4565z"/>
	<path fill="#FCFCFC" d="M1745,4106c-11.001-6.001-51.001-28.999-90-50C1617.001,4035,1551,3997.998,1510,3975
		c-41.001-23.999-100-56.001-130-72.998c-30-16.001-100-54.004-155-84.004s-127.002-70-160-87.998s-77.998-42.998-100-55
		c-22.002-12.998-71.001-40-110-60c-37.998-21.001-77.998-43.999-87.002-52.998C751,3547.998,750,3487.001,750,2558.999v-988.003
		l27.002-18.994c15.996-10,63.999-37.998,107.998-62.002c43.999-24.004,100-54.004,125-67.998
		c25-12.998,77.998-42.002,118.999-64.004s85-47.002,98.003-55c12.998-8.994,25.996-12.998,28.999-10
		c2.998,2.998,5,187.002,3.999,410c0,267.998,2.998,407.998,10,412.002c8.999,5,45-12.002,172.998-84.004
		c18.003-10,59.004-32.998,92.002-50.996s76.001-42.002,95-52.998c18.999-11.006,72.998-39.004,120-64.004
		c47.002-23.994,92.002-47.998,100-53.994c30-18.008,250-139.004,255-139.004c2.002,0,42.002-22.002,88.999-50
		c47.002-27.002,87.002-50,88.999-50c3.003,0,52.002-27.002,111.001-59.004c133.999-75,138.999-76.992,178.999-52.998
		c32.998,21.006,70,41.006,175,99.004l62.002,35v253.994c0,245-0.996,254.004-19.004,254.004c-10.996,0-21.992-4.004-25-9.004
		c-2.998-5-31.992-21.992-62.998-37.998c-32.002-17.002-77.002-40.996-100-52.998L2560,1977.002L2467.998,2025
		c-81.997,42.002-205,109.004-247.998,135c-7.998,5-35,20-60,32.998c-25,12.002-72.002,37.998-105,57.002
		c-32.998,17.998-73.999,40.996-92.002,50.996c-17.998,10-62.998,35-100,55c-36.997,20-80.996,45-97.998,55
		c-16.001,9.004-58.999,33.008-95,52.002c-36.001,17.998-105,56.006-155,84.004c-48.999,26.997-121.001,66.997-160,87.998
		c-116.001,62.998-105,27.002-105,355c0,330-7.002,306.001,100,362.002c36.001,18.999,122.002,66.997,192.002,105.996
		c70.996,40,130.996,72.002,133.999,72.002c2.998,0,17.998,7.998,31.997,18.999c15,10,70,41.001,122.002,68.003
		c52.002,26.997,136.001,71.997,185,100c50,27.998,123.999,68.999,165,90.996c41.001,22.002,76.001,45,77.002,49.004
		c3.999,10-16.001,20.996-187.002,110.996c-57.998,30-108.999,58.003-115,62.002c-22.998,17.002-167.998,90-178.999,88.999
		C1770,4117.998,1756,4112.998,1745,4106z"/>
	<path fill="#FCFCFC" d="M3304.003,3251.001c-5-5-45-28.003-89.004-51.001s-114.004-60-155-82.998
		c-40.996-22.002-105-56.001-142.998-76.001c-37.002-18.999-66.006-38.999-64.004-43.999c2.002-8.003,94.004-64.004,137.002-84.004
		c7.998-2.998,32.002-17.998,52.998-30.996l37.002-25v-727.998v-727.002l-32.998-21.006
		c-17.998-10.996-97.998-52.998-177.002-93.994c-80-40-187.998-96.006-240.996-124.004c-88.003-45.996-98.003-48.994-120.005-37.002
		c-12.998,7.002-91.001,53.008-173.999,102.002c-82.002,47.998-192.002,112.998-242.998,142.998c-51.001,30-105,61.006-120,70
		c-15,9.004-49.004,28.008-77.002,43.008c-27.002,15.996-102.002,58.994-165,95.996c-140,82.002-188.999,110-195,110
		c-2.998,0-3.999-122.002-2.998-270.996l2.998-271.006l45-25c25-13.994,72.998-42.998,107.002-63.994
		c33.999-21.006,65-39.004,67.998-39.004s33.999-17.002,67.998-37.998c65-40,419.004-247.998,592.002-347.002
		c55-32.002,102.002-62.002,102.998-65.996c5-12.002,39.004-11.006,47.002,0c2.998,5.996,35.996,25,72.998,43.994
		C2710.996,650,2927.001,762.002,3235,925c50,25.996,127.998,67.998,175,92.002c47.002,25,135,70.996,195,102.998
		c100.996,52.998,194.004,102.002,442.998,230.996c192.002,100,287.002,153.008,294.004,163.008
		C4345.996,1520,4350,1650,4350,1802.998c0,260-0.996,277.002-17.998,277.002c-10,0-22.002-4.004-27.002-9.004
		c-10-7.998-100-56.992-320-170.996c-90-47.002-160.996-85-322.998-172.002c-30-15-57.998-25.996-62.998-22.002
		c-6.006,3.008-9.004,276.006-9.004,697.002l0.996,691.001L3570,3110c-12.002,8.999-37.998,25-57.998,35
		c-21.006,11.001-64.004,36.001-97.002,56.001C3325,3255,3314.003,3260,3304.003,3251.001z"/>
</g>
</svg>
